<svg width="100%" viewBox="0 0 680 420" role="img" style="" xmlns="http://www.w3.org/2000/svg">
  <title style="fill:rgb(0, 0, 0);stroke:none;color:rgb(0, 0, 0);stroke-width:1px;stroke-linecap:butt;stroke-linejoin:miter;opacity:1;font-family:&quot;Anthropic Sans&quot;, -apple-system, BlinkMacSystemFont, &quot;Segoe UI&quot;, sans-serif;font-size:16px;font-weight:400;text-anchor:start;dominant-baseline:auto">LM-Source water drop logo</title>
  <desc style="fill:rgb(0, 0, 0);stroke:none;color:rgb(0, 0, 0);stroke-width:1px;stroke-linecap:butt;stroke-linejoin:miter;opacity:1;font-family:&quot;Anthropic Sans&quot;, -apple-system, BlinkMacSystemFont, &quot;Segoe UI&quot;, sans-serif;font-size:16px;font-weight:400;text-anchor:start;dominant-baseline:auto">A bold blue filled water drop surrounded by multiple concentric white ring layers, above the LM-Source wordmark</desc>

  

  
  

  
  <path d="M340 28 C340 28 274 108 274 158 A66 66 0 0 0 406 158 C406 108 340 28 340 28 Z" fill="#BFDBFE" opacity="0.25" style="fill:rgb(191, 219, 254);stroke:none;color:rgb(0, 0, 0);stroke-width:1px;stroke-linecap:butt;stroke-linejoin:miter;opacity:0.25;font-family:&quot;Anthropic Sans&quot;, -apple-system, BlinkMacSystemFont, &quot;Segoe UI&quot;, sans-serif;font-size:16px;font-weight:400;text-anchor:start;dominant-baseline:auto"/>

  
  <path d="M340 42 C340 42 282 114 282 158 A58 58 0 0 0 398 158 C398 114 340 42 340 42 Z" fill="#93C5FD" opacity="0.35" style="fill:rgb(147, 197, 253);stroke:none;color:rgb(0, 0, 0);stroke-width:1px;stroke-linecap:butt;stroke-linejoin:miter;opacity:0.35;font-family:&quot;Anthropic Sans&quot;, -apple-system, BlinkMacSystemFont, &quot;Segoe UI&quot;, sans-serif;font-size:16px;font-weight:400;text-anchor:start;dominant-baseline:auto"/>

  
  <path d="M340 56 C340 56 290 120 290 158 A50 50 0 0 0 390 158 C390 120 340 56 340 56 Z" fill="#60A5FA" opacity="0.45" style="fill:rgb(96, 165, 250);stroke:none;color:rgb(0, 0, 0);stroke-width:1px;stroke-linecap:butt;stroke-linejoin:miter;opacity:0.45;font-family:&quot;Anthropic Sans&quot;, -apple-system, BlinkMacSystemFont, &quot;Segoe UI&quot;, sans-serif;font-size:16px;font-weight:400;text-anchor:start;dominant-baseline:auto"/>

  
  <path d="M340 70 C340 70 298 126 298 158 A42 42 0 0 0 382 158 C382 126 340 70 340 70 Z" fill="#2563EB" opacity="0.65" style="fill:rgb(37, 99, 235);stroke:none;color:rgb(0, 0, 0);stroke-width:1px;stroke-linecap:butt;stroke-linejoin:miter;opacity:0.65;font-family:&quot;Anthropic Sans&quot;, -apple-system, BlinkMacSystemFont, &quot;Segoe UI&quot;, sans-serif;font-size:16px;font-weight:400;text-anchor:start;dominant-baseline:auto"/>

  
  <path d="M340 88 C340 88 308 132 308 158 A32 32 0 0 0 372 158 C372 132 340 88 340 88 Z" fill="#1D4ED8" style="fill:rgb(29, 78, 216);stroke:none;color:rgb(0, 0, 0);stroke-width:1px;stroke-linecap:butt;stroke-linejoin:miter;opacity:1;font-family:&quot;Anthropic Sans&quot;, -apple-system, BlinkMacSystemFont, &quot;Segoe UI&quot;, sans-serif;font-size:16px;font-weight:400;text-anchor:start;dominant-baseline:auto"/>

  
  <path d="M330 112 C330 112 323 128 323 138 A10 10 0 0 0 337 138 C337 128 330 112 330 112 Z" fill="white" opacity="0.28" style="fill:rgb(255, 255, 255);stroke:none;color:rgb(0, 0, 0);stroke-width:1px;stroke-linecap:butt;stroke-linejoin:miter;opacity:0.28;font-family:&quot;Anthropic Sans&quot;, -apple-system, BlinkMacSystemFont, &quot;Segoe UI&quot;, sans-serif;font-size:16px;font-weight:400;text-anchor:start;dominant-baseline:auto"/>

  
  <text x="340" y="290" text-anchor="middle" font-size="46" style="fill:rgb(232, 230, 255);stroke:none;color:rgb(0, 0, 0);stroke-width:1px;stroke-linecap:butt;stroke-linejoin:miter;opacity:1;font-family:&quot;Anthropic Sans&quot;, sans-serif;font-size:46px;font-weight:500;text-anchor:middle;dominant-baseline:auto">
    <tspan style="fill:rgb(232, 230, 255);stroke:none;color:rgb(0, 0, 0);stroke-width:1px;stroke-linecap:butt;stroke-linejoin:miter;opacity:1;font-family:&quot;Anthropic Sans&quot;, sans-serif;font-size:46px;font-weight:500;text-anchor:middle;dominant-baseline:auto">LM-</tspan><tspan style="fill:rgb(96, 165, 250);stroke:none;color:rgb(0, 0, 0);stroke-width:1px;stroke-linecap:butt;stroke-linejoin:miter;opacity:1;font-family:&quot;Anthropic Sans&quot;, sans-serif;font-size:46px;font-weight:500;text-anchor:middle;dominant-baseline:auto">Source</tspan>
  </text>

  <text x="340" y="318" text-anchor="middle" font-size="10" style="fill:rgb(156, 163, 175);stroke:none;color:rgb(0, 0, 0);stroke-width:1px;stroke-linecap:butt;stroke-linejoin:miter;opacity:1;font-family:&quot;Anthropic Sans&quot;, sans-serif;font-size:10px;font-weight:400;text-anchor:middle;dominant-baseline:auto">BROWSER EXTENSION</text>

</svg>